<svg viewBox="0 0 24 24" style="enable-background:new 0 0 162.621 162.621;">
<g>
	<path style="fill:#F16268;" d="M126.609,19.966c-1.183,0-2.321,0.166-3.394,0.428c7.821,2.17,13.61,9.279,13.61,17.783v19.162
		c4.449,4.321,7.228,10.354,7.228,17.033v62.365c8.938-14.562,15.526-50.187,4.075-89.628
		C142.971,29.352,135.531,19.966,126.609,19.966z"/>
	<path style="fill:#F16268;" d="M25.545,57.336v-19.16c0-8.546,5.845-15.687,13.726-17.818c-1.033-0.243-2.127-0.393-3.259-0.393
		c-8.922,0-16.362,9.386-21.518,27.142c-11.345,39.078-4.982,74.407,3.822,89.216V74.371C18.316,67.692,21.095,61.658,25.545,57.336
		z"/>
	<path style="fill:#71CDDE;" d="M60.59,19.647h8.174c1.452-4.784,6.444-8.341,12.421-8.341c5.975,0,10.967,3.557,12.419,8.341h8.174
		c-1.671-7.944-10.257-14.018-20.593-14.018C70.847,5.629,62.262,11.703,60.59,19.647z"/>
	<path style="fill:#71CDDE;" d="M138.424,138.855V74.371c0-2.943-0.772-5.683-2.021-8.143c-1.409,6.593-6.36,11.82-12.738,13.769
		v8.66c0,4.654-3.788,8.444-8.444,8.444h-3.848c-4.656,0-8.444-3.79-8.444-8.444v-7.773H62.777v7.773
		c0,4.654-3.788,8.444-8.444,8.444h-3.848c-4.656,0-8.444-3.79-8.444-8.444v-7.979c-7.96-0.885-14.427-6.745-16.074-14.452
		c-1.25,2.46-2.021,5.202-2.021,8.146v64.483c0,10.001,8.136,18.137,18.137,18.137h78.203
		C130.287,156.992,138.424,148.855,138.424,138.855z M113.643,151.036H48.727c-10.023,0-18.178-8.154-18.178-18.178v-10.423
		c0-10.023,8.154-18.178,18.178-18.178h64.916c10.023,0,18.178,8.154,18.178,18.178v10.423
		C131.821,142.882,123.667,151.036,113.643,151.036z"/>
	<path style="fill:#F16268;" d="M44.075,25.276c-7.114,0-12.9,5.787-12.9,12.9v24.177c0,6.417,4.722,11.71,10.866,12.694V62.196
		c0-4.654,3.788-8.444,8.444-8.444h3.848c4.656,0,8.444,3.79,8.444,8.444v13.058h40.152V62.196c0-4.654,3.788-8.444,8.444-8.444
		h3.848c4.656,0,8.444,3.79,8.444,8.444v11.851c4.432-2.045,7.531-6.502,7.531-11.693V38.177c0-7.113-5.787-12.9-12.9-12.9H44.075z"
		/>
	<path style="fill:#71CDDE;" d="M50.485,91.471h3.848c1.552,0,2.815-1.264,2.815-2.814v-26.46c0-1.55-1.262-2.814-2.815-2.814
		h-3.848c-1.552,0-2.814,1.264-2.814,2.814v26.46C47.67,90.207,48.932,91.471,50.485,91.471z"/>
	<path style="fill:#71CDDE;" d="M111.373,91.471h3.848c1.553,0,2.814-1.264,2.814-2.814v-26.46c0-1.55-1.262-2.814-2.814-2.814
		h-3.848c-1.552,0-2.814,1.264-2.814,2.814v26.46C108.558,90.207,109.821,91.471,111.373,91.471z"/>
	<path style="fill:#F16268;" d="M126.191,122.436c0-6.919-5.629-12.548-12.548-12.548H48.727c-6.919,0-12.548,5.629-12.548,12.548
		v10.423c0,6.919,5.629,12.549,12.548,12.549h64.916c6.919,0,12.548-5.629,12.548-12.549V122.436z"/>
	<path style="fill:#FFFFFF;" d="M103.902,25.145c0,0-54,2.25-60,4s-8.25,4.75-8.5,13s-1.75,27.75,1.25,31.75s-7,2.75-8-5.75
		s-2.75-33.5,3.75-40.25S99.152,22.145,103.902,25.145z"/>
	<path style="fill:#FFFFFF;" d="M102.652,109.645c0,0-53.25,2.25-58.25,6.25s-5.25,26.75-1,30c0,0-7.25-1-9-7.75s-1-22,4.5-27.25
		S98.152,105.395,102.652,109.645z"/>
	<path style="fill:#FFFFFF;" d="M18.316,136.324c0,0-10.164-33.18-6.164-66.18s17.5-48.75,24-51s-8-2.5-13,3.5
		s-16.75,41.5-17.5,52.75s-1.25,32.75,0.75,40S18.316,136.324,18.316,136.324z"/>
	<path style="fill:#FFFFFF;" d="M144.726,137.324c0,0,10.164-33.18,6.164-66.18s-17.5-48.75-24-51c-6.5-2.25,8-2.5,13,3.5
		s16.75,41.5,17.5,52.75s1.25,32.75-0.75,40S144.726,137.324,144.726,137.324z"/>
	<path style="fill:#FFFFFF;" d="M56.402,58.395c0,0-5.75,1.5-6.75,3.5s-0.5,30.75-0.5,30.75l-2.5-3l-0.75-32
		C45.902,57.645,53.902,55.145,56.402,58.395z"/>
	<path style="fill:#FFFFFF;" d="M117.402,58.895c0,0-5.75,1.5-6.75,3.5s-0.5,30.75-0.5,30.75l-2.5-3l-0.75-32
		C106.902,58.145,114.902,55.645,117.402,58.895z"/>
	<path style="fill:#25555E;" d="M126.609,14.337c-6.831,0-12.276,3.713-14.311,5.31h-4.805C105.848,8.587,94.69,0,81.185,0
		C67.679,0,56.52,8.587,54.876,19.647h-4.552c-2.034-1.597-7.481-5.31-14.312-5.31c-8.149,0-19.437,5.413-26.924,31.203
		c-12.515,43.103-4.491,89.587,10.569,101.113c3.238,9.281,12.054,15.968,22.425,15.968h78.203c10.277,0,19.026-6.569,22.334-15.72
		c15.281-11.079,23.522-57.933,10.913-101.362C146.046,19.75,134.759,14.337,126.609,14.337z M42.083,156.992
		c-10.001,0-18.137-8.136-18.137-18.137V74.371c0-2.944,0.771-5.685,2.021-8.146c1.647,7.707,8.115,13.567,16.074,14.452v7.979
		c0,4.654,3.788,8.444,8.444,8.444h3.848c4.656,0,8.444-3.79,8.444-8.444v-7.773h40.152v7.773c0,4.654,3.788,8.444,8.444,8.444
		h3.848c4.656,0,8.444-3.79,8.444-8.444v-8.66c6.378-1.949,11.329-7.176,12.738-13.769c1.249,2.46,2.021,5.2,2.021,8.143v64.483
		c0,10.001-8.137,18.137-18.138,18.137H42.083z M14.494,47.108C19.65,29.352,27.09,19.966,36.012,19.966
		c1.132,0,2.226,0.15,3.259,0.393c-7.881,2.131-13.726,9.272-13.726,17.818v19.16c-4.45,4.322-7.229,10.356-7.229,17.035v61.953
		C9.512,121.515,3.149,86.186,14.494,47.108z M101.778,19.647h-8.174c-1.452-4.784-6.444-8.341-12.419-8.341
		c-5.977,0-10.969,3.557-12.421,8.341H60.59c1.671-7.944,10.257-14.018,20.595-14.018C91.521,5.629,100.107,11.703,101.778,19.647z
		 M87.396,19.647H74.972c1.269-1.616,3.565-2.712,6.213-2.712C83.833,16.935,86.129,18.031,87.396,19.647z M118.296,25.276
		c7.113,0,12.9,5.787,12.9,12.9v24.177c0,5.192-3.1,9.649-7.531,11.693V62.196c0-4.654-3.788-8.444-8.444-8.444h-3.848
		c-4.656,0-8.444,3.79-8.444,8.444v13.058H62.777V62.196c0-4.654-3.788-8.444-8.444-8.444h-3.848c-4.656,0-8.444,3.79-8.444,8.444
		v12.852c-6.144-0.984-10.866-6.277-10.866-12.694V38.177c0-7.113,5.787-12.9,12.9-12.9H118.296z M47.67,62.196
		c0-1.55,1.262-2.814,2.814-2.814h3.848c1.552,0,2.815,1.264,2.815,2.814v26.46c0,1.55-1.262,2.814-2.815,2.814h-3.848
		c-1.552,0-2.814-1.264-2.814-2.814V62.196z M108.558,62.196c0-1.55,1.263-2.814,2.814-2.814h3.848c1.553,0,2.814,1.264,2.814,2.814
		v26.46c0,1.55-1.262,2.814-2.814,2.814h-3.848c-1.552,0-2.814-1.264-2.814-2.814V62.196z M144.053,136.736V74.371
		c0-6.678-2.778-12.711-7.228-17.033V38.177c0-8.504-5.789-15.612-13.61-17.783c1.073-0.263,2.212-0.428,3.394-0.428
		c8.922,0,16.362,9.386,21.519,27.142C159.579,86.55,152.99,122.174,144.053,136.736z"/>
	<path style="fill:#25555E;" d="M131.821,132.858v-10.423c0-10.023-8.154-18.178-18.178-18.178H48.727
		c-10.023,0-18.178,8.154-18.178,18.178v10.423c0,10.023,8.154,18.178,18.178,18.178h64.916
		C123.667,151.036,131.821,142.882,131.821,132.858z M113.643,145.407H48.727c-6.919,0-12.548-5.629-12.548-12.549v-10.423
		c0-6.919,5.629-12.548,12.548-12.548h64.916c6.919,0,12.548,5.629,12.548,12.548v10.423
		C126.191,139.778,120.562,145.407,113.643,145.407z"/>
</g></svg>
