<?xml version="1.0" encoding="iso-8859-1"?>
<!DOCTYPE svg PUBLIC "-//W3C//DTD SVG 1.1//EN" "http://www.w3.org/Graphics/SVG/1.1/DTD/svg11.dtd">
<svg version="1.1" id="Layer_1" xmlns="http://www.w3.org/2000/svg" xmlns:xlink="http://www.w3.org/1999/xlink" x="0px" y="0px" viewBox="0 0 100 100" style="enable-background:new 0 0 100 100;" xml:space="preserve">
	<path style="fill:#fff;" d="M81.947, 32.56c0.033, 0.705, 0.05, 1.416, 0.05, 2.132c0, 21.768-16.563, 46.859-46.854, 46.859c-9.3, 0-17.962-2.725-25.254-7.398 c1.293, 0.151, 2.608, 0.235, 3.928, 0.235c7.722, 0, 14.818-2.635, 20.458-7.056c-7.208-0.134-13.296-4.902-15.388-11.438 c1.001, 0.185, 2.042, 0.291, 3.106, 0.291c1.494, 0, 2.949-0.202, 4.337-0.576c-7.537-1.516-13.217-8.164-13.217-16.144v-0.213 c2.222, 1.242, 4.768, 1.975, 7.465, 2.059c-4.421-2.949-7.33-7.991-7.33-13.704c0-3.016, 0.817-5.853, 2.227-8.282 c8.131, 9.966, 20.263, 16.513, 33.956, 17.213c-0.28-1.209-0.426-2.468-0.426-3.755c0-9.099, 7.37-16.474, 16.463-16.474 c4.74, 0, 9.026, 1.998, 12.02, 5.204c3.755-0.739, 7.28-2.11, 10.47-4.001c-1.237, 3.85-3.85, 7.079-7.246, 9.116 c3.33-0.397, 6.508-1.281, 9.457-2.591C87.957, 27.334, 85.17, 30.244, 81.947, 32.56z"/>
</svg>