<?xml version="1.0" standalone="no"?>
<!DOCTYPE svg PUBLIC "-//W3C//DTD SVG 20010904//EN"
 "http://www.w3.org/TR/2001/REC-SVG-20010904/DTD/svg10.dtd">
<svg version="1.0" xmlns="http://www.w3.org/2000/svg"
 width="1200.000000pt" height="1200.000000pt" viewBox="0 0 1200.000000 1200.000000"
 preserveAspectRatio="xMidYMid meet">

<g transform="translate(0.000000,1200.000000) scale(0.100000,-0.100000)"
fill="#000000" stroke="none">
<path d="M0 6000 l0 -6000 6000 0 6000 0 0 6000 0 6000 -6000 0 -6000 0 0
-6000z m7385 383 c759 -1708 1383 -3114 1387 -3124 7 -18 -9 -19 -511 -19
l-518 0 -280 697 -281 698 -1187 0 -1187 0 -277 -693 c-153 -381 -280 -694
-283 -697 -3 -3 -237 -4 -521 -3 l-515 3 1391 3122 c766 1717 1394 3122 1397
3122 3 0 626 -1397 1385 -3106z"/>
<path d="M5595 6493 c-219 -527 -400 -966 -403 -975 -4 -17 39 -18 811 -18
l815 0 -193 463 c-105 254 -288 693 -405 975 -117 281 -216 512 -220 512 -4 0
-186 -431 -405 -957z"/>
</g>
</svg>
