<?xml version="1.0" encoding="iso-8859-1"?>
<!-- Generator: Adobe Illustrator 19.0.0, SVG Export Plug-In . SVG Version: 6.00 Build 0)  -->
<svg version="1.1" id="Layer_1" xmlns="http://www.w3.org/2000/svg" xmlns:xlink="http://www.w3.org/1999/xlink" x="0px" y="0px"
	 viewBox="0 0 512 512" style="enable-background:new 0 0 512 512;" xml:space="preserve">
<path style="fill:#423299;" d="M511.344,274.266C511.77,268.231,512,262.143,512,256C512,114.615,397.385,0,256,0S0,114.615,0,256
	c0,117.769,79.53,216.949,187.809,246.801L511.344,274.266z"/>
<path style="fill:#1B0683;" d="M511.344,274.266L314.991,77.913L119.096,434.087l68.714,68.714C209.522,508.787,232.385,512,256,512
	C391.243,512,501.976,407.125,511.344,274.266z"/>
<polygon style="fill:#FFFFFF;" points="278.328,333.913 255.711,77.913 119.096,77.913 119.096,311.652 "/>
<polygon style="fill:#E8E6E6;" points="392.904,311.652 392.904,155.826 337.252,133.565 314.991,77.913 255.711,77.913 
	256.067,333.913 "/>
<polygon style="fill:#FFFFFF;" points="314.991,155.826 314.991,77.913 392.904,155.826 "/>
<rect x="119.096" y="311.652" style="fill:#6A5CAF;" width="273.809" height="122.435"/>
<g>
	<path style="fill:#FFFFFF;" d="M230.64,354.863l-7.795,9.233c-3.48-4.238-8.627-6.887-13.32-6.887
		c-8.4,0-14.757,6.659-14.757,15.363c0,8.854,6.357,15.589,14.757,15.589c4.466,0,9.611-2.422,13.32-6.206l7.87,8.324
		c-5.675,5.827-14.076,9.687-21.871,9.687c-15.969,0-27.849-11.73-27.849-27.245c0-15.287,12.184-26.79,28.305-26.79
		C217.169,345.933,225.342,349.413,230.64,354.863z"/>
	<path style="fill:#FFFFFF;" d="M279.988,351.684l-5.071,10.519c-5.6-3.255-12.639-5.524-16.952-5.524
		c-3.482,0-5.827,1.287-5.827,3.86c0,9.157,28.001,3.936,28.001,23.082c0,10.595-9.384,16.196-21.19,16.196
		c-8.854,0-17.936-3.33-24.218-8.476l5.221-10.368c5.449,4.768,13.623,7.947,19.148,7.947c4.238,0,6.886-1.589,6.886-4.617
		c0-9.384-28.001-3.783-28.001-22.552c0-9.763,8.4-15.969,21.114-15.969C266.744,345.781,274.539,348.128,279.988,351.684z"/>
	<path style="fill:#FFFFFF;" d="M330.622,351.684l-5.071,10.519c-5.601-3.255-12.639-5.524-16.952-5.524
		c-3.48,0-5.827,1.287-5.827,3.86c0,9.157,28.001,3.936,28.001,23.082c0,10.595-9.384,16.196-21.19,16.196
		c-8.854,0-17.936-3.33-24.218-8.476l5.222-10.368c5.449,4.768,13.621,7.947,19.147,7.947c4.238,0,6.887-1.589,6.887-4.617
		c0-9.384-28.002-3.783-28.002-22.552c0-9.763,8.4-15.969,21.114-15.969C317.379,345.781,325.173,348.128,330.622,351.684z"/>
</g>
</svg>
